<svg width="42" height="42" viewBox="0 0 42 42" fill="none" xmlns="http://www.w3.org/2000/svg">
<path d="M20.833 0.5C32.063 0.5 41.1668 9.60305 41.167 20.833C41.167 32.0631 32.0631 41.167 20.833 41.167C9.60305 41.1668 0.5 32.063 0.5 20.833C0.500177 9.60316 9.60316 0.500177 20.833 0.5ZM20.833 3.66699C16.4225 3.66708 12.1872 5.36448 9 8.39746L8.69434 8.69434C5.47504 11.9136 3.66708 16.2802 3.66699 20.833C3.66699 25.2438 5.3643 29.4796 8.39746 32.667L8.69434 32.9717C11.9136 36.191 16.2802 37.9999 20.833 38C25.3859 38 29.7523 36.1911 32.9717 32.9717C36.1911 29.7523 38 25.3859 38 20.833C37.9999 16.4225 36.3024 12.1872 33.2695 9L32.9717 8.69434C29.7523 5.47517 25.3857 3.66699 20.833 3.66699ZM17.5166 13.7246C17.5466 13.7261 17.5762 13.7319 17.6045 13.7412L17.6846 13.7803H17.6855L27.8496 20.5557C27.8725 20.5709 27.8937 20.5891 27.9121 20.6094L27.959 20.6758C27.9849 20.7241 27.999 20.7782 27.999 20.833C27.999 20.8604 27.9949 20.8877 27.9883 20.9141L27.959 20.9912C27.9461 21.0153 27.9303 21.0376 27.9121 21.0576L27.8496 21.1104V21.1113L17.6836 27.8857C17.6336 27.9187 17.5755 27.9376 17.5156 27.9404C17.4856 27.9418 17.4558 27.9392 17.4268 27.9326L17.3428 27.9014C17.3162 27.8872 17.2921 27.8692 17.2705 27.8486L17.2148 27.7793C17.1993 27.7535 17.1867 27.726 17.1787 27.6973L17.167 27.6084V14.0576C17.167 14.0276 17.1708 13.9974 17.1787 13.9688L17.2139 13.8857C17.2294 13.8599 17.2489 13.837 17.2705 13.8164L17.3428 13.7637C17.396 13.7353 17.4564 13.7217 17.5166 13.7246Z" fill="white" stroke="black"/>
</svg>
